<svg width="297" height="46" viewBox="0 0 297 46" fill="none" xmlns="http://www.w3.org/2000/svg">
<path d="M11.8819 18.0244C13.8089 18.0244 15.533 18.4364 17.0543 19.2683C18.5757 20.1002 19.7693 21.2569 20.6275 22.7306C21.4857 24.2122 21.9148 25.8759 21.9148 27.722C21.9148 29.7185 21.4935 31.4774 20.6509 32.9907C19.8083 34.5118 18.6303 35.6844 17.1246 36.5163C15.6189 37.3482 13.9025 37.7602 11.9911 37.7602H7.46615V45.3344H0V18.0244H11.8819ZM13.0053 30.6217C13.45 30.3286 13.8011 29.9245 14.0663 29.4175C14.3316 28.9104 14.4642 28.3479 14.4642 27.7299C14.4642 27.2624 14.3316 26.795 14.0663 26.3355C13.8011 25.8759 13.45 25.4956 12.9975 25.1946C12.5528 24.8935 12.0769 24.743 11.5698 24.743H7.45835V31.0654H11.5542C12.0769 31.0575 12.5606 30.9149 13.0053 30.6217Z" fill="#0000FF"/>
<path d="M36.5429 18.0244C38.4777 18.0244 40.2097 18.4206 41.7232 19.2208C43.2367 20.021 44.4225 21.1302 45.2807 22.5642C46.1389 23.9982 46.568 25.6383 46.568 27.4843C46.568 29.2511 46.1467 30.8356 45.3041 32.2301C44.4615 33.6324 43.2991 34.7178 41.8246 35.4943L47.2467 45.3344H38.7196L34.5301 36.6827H33.1882H32.0414V45.3424H24.583V18.0244H36.5429ZM37.6741 30.0037C38.1188 29.7581 38.4777 29.4095 38.7352 28.9659C38.9926 28.5222 39.1174 28.031 39.1174 27.4764C39.1174 27.0248 38.9848 26.5811 38.7196 26.1532C38.4543 25.7254 38.1032 25.3768 37.6585 25.1154C37.2138 24.8539 36.7379 24.7271 36.223 24.7271H32.0336V30.3682H36.2074C36.7379 30.3761 37.2216 30.2573 37.6741 30.0037Z" fill="#0000FF"/>
<path d="M55.5474 44.0748C53.2927 42.7913 51.5062 41.0482 50.1877 38.8457C48.8692 36.6431 48.2139 34.2425 48.2139 31.6438C48.2139 29.0293 48.8692 26.6366 50.1877 24.442C51.5062 22.2553 53.2927 20.5202 55.5474 19.2367C57.8021 17.9532 60.2674 17.3193 62.9433 17.3193C65.6037 17.3193 68.069 17.9611 70.3159 19.2367C72.5627 20.5122 74.3571 22.2473 75.6834 24.442C77.0097 26.6366 77.6728 29.0293 77.6728 31.6438C77.6728 34.2425 77.0097 36.6431 75.6834 38.8457C74.3571 41.0482 72.5705 42.7913 70.3159 44.0748C68.0612 45.3583 65.6037 46 62.9433 46C60.2674 46 57.8021 45.3583 55.5474 44.0748ZM66.6335 38.1485C67.7491 37.5226 68.6307 36.6352 69.2705 35.5102C69.918 34.3772 70.2379 33.0937 70.2379 31.6676C70.2379 30.2415 69.918 28.9501 69.2705 27.825C68.6229 26.692 67.7413 25.8126 66.6335 25.1867C65.5179 24.5608 64.293 24.2439 62.9433 24.2439C61.5937 24.2439 60.3688 24.5608 59.2532 25.1867C58.1375 25.8126 57.256 26.7 56.6162 27.825C55.9687 28.958 55.6488 30.2415 55.6488 31.6676C55.6488 33.0937 55.9765 34.3772 56.624 35.5022C57.2794 36.6273 58.1609 37.5067 59.2766 38.1405C60.3922 38.7744 61.6171 39.0913 62.9433 39.0913C64.293 39.0913 65.5179 38.7823 66.6335 38.1485Z" fill="#0000FF"/>
<path d="M80.8403 18.0244H87.4093L94.9847 28.8866L102.716 18.0244H109.199V45.3344H101.764V30.0592L95.8897 38.6951H94.0719L88.2987 29.98V45.3424H80.8403V18.0244Z" fill="#0000FF"/>
<path d="M119.7 44.0748C117.446 42.7913 115.659 41.0482 114.341 38.8457C113.022 36.6431 112.367 34.2425 112.367 31.6438C112.367 29.0293 113.022 26.6366 114.341 24.442C115.659 22.2553 117.446 20.5202 119.7 19.2367C121.955 17.9611 124.42 17.3193 127.096 17.3193C129.757 17.3193 132.222 17.9611 134.469 19.2367C136.723 20.5122 138.51 22.2473 139.836 24.442C141.162 26.6287 141.826 29.0293 141.826 31.6438C141.826 34.2425 141.162 36.6431 139.836 38.8457C138.51 41.0482 136.723 42.7913 134.469 44.0748C132.214 45.3583 129.757 46 127.096 46C124.42 46 121.955 45.3583 119.7 44.0748ZM130.786 38.1485C131.902 37.5226 132.784 36.6352 133.423 35.5102C134.071 34.3772 134.391 33.0937 134.391 31.6676C134.391 30.2415 134.071 28.9501 133.423 27.825C132.776 26.692 131.894 25.8126 130.786 25.1867C129.671 24.5608 128.446 24.2439 127.096 24.2439C125.746 24.2439 124.522 24.5608 123.406 25.1867C122.29 25.8126 121.409 26.7 120.769 27.825C120.122 28.958 119.802 30.2415 119.802 31.6676C119.802 33.0937 120.129 34.3772 120.777 35.5022C121.424 36.6273 122.314 37.5067 123.429 38.1405C124.545 38.7744 125.77 39.0913 127.096 39.0913C128.446 39.0913 129.671 38.7823 130.786 38.1485Z" fill="#0000FF"/>
<path d="M150.594 44.0667C148.402 42.7753 146.662 41.0323 145.367 38.8377C144.072 36.643 143.417 34.2424 143.417 31.6516C143.417 29.0371 144.072 26.6444 145.375 24.4498C146.678 22.2552 148.441 20.528 150.665 19.2445C152.888 17.961 155.307 17.3271 157.936 17.3271C159.886 17.3271 161.852 17.7471 163.842 18.579C165.831 19.4109 167.532 20.623 168.952 22.2076C170.379 23.7843 171.245 25.6382 171.565 27.7694H163.974C163.358 26.6286 162.515 25.757 161.462 25.147C160.409 24.5369 159.161 24.2359 157.725 24.2359C156.469 24.2359 155.322 24.529 154.285 25.1074C153.247 25.6937 152.412 26.5414 151.796 27.6585C151.18 28.7756 150.868 30.1146 150.868 31.6675C150.868 33.2758 151.172 34.6306 151.788 35.7477C152.404 36.8569 153.231 37.6968 154.269 38.2593C155.314 38.8218 156.461 39.0991 157.733 39.0991C159.106 39.0991 160.284 38.8456 161.283 38.3385C162.281 37.8315 162.96 37.0392 163.327 35.9696H157.452V30.0671H171.714C171.768 33.4264 171.245 36.3023 170.153 38.695C169.061 41.0877 167.454 42.9021 165.347 44.146C163.241 45.3898 160.705 46.0157 157.756 46.0157C155.158 45.9999 152.779 45.3581 150.594 44.0667Z" fill="#0000FF"/>
<path d="M186.818 18.0244C188.753 18.0244 190.485 18.4206 191.998 19.2208C193.512 20.021 194.697 21.1302 195.556 22.5642C196.414 23.9982 196.843 25.6383 196.843 27.4843C196.843 29.2511 196.422 30.8356 195.579 32.2301C194.736 33.6324 193.574 34.7178 192.099 35.4943L197.522 45.3344H188.994L184.805 36.6748H183.463H182.316V45.3344H174.858V18.0244H186.818ZM187.949 30.0037C188.394 29.7581 188.753 29.4095 189.01 28.9659C189.268 28.5222 189.392 28.031 189.392 27.4764C189.392 27.0248 189.26 26.5811 188.994 26.1532C188.729 25.7254 188.378 25.3768 187.933 25.1154C187.489 24.8539 187.013 24.7271 186.498 24.7271H182.308V30.3682H186.482C187.013 30.3761 187.497 30.2573 187.949 30.0037Z" fill="#0000FF"/>
<path d="M205.822 44.0748C203.568 42.7913 201.781 41.0482 200.463 38.8457C199.144 36.6431 198.489 34.2425 198.489 31.6438C198.489 29.0293 199.144 26.6366 200.463 24.442C201.781 22.2553 203.568 20.5202 205.822 19.2367C208.077 17.9532 210.542 17.3193 213.218 17.3193C215.879 17.3193 218.344 17.9611 220.591 19.2367C222.838 20.5122 224.632 22.2473 225.958 24.442C227.285 26.6366 227.948 29.0293 227.948 31.6438C227.948 34.2425 227.285 36.6431 225.958 38.8457C224.632 41.0482 222.845 42.7913 220.591 44.0748C218.336 45.3583 215.879 46 213.218 46C210.542 46 208.077 45.3583 205.822 44.0748ZM216.908 38.1485C218.024 37.5226 218.906 36.6352 219.545 35.5102C220.193 34.3772 220.513 33.0937 220.513 31.6676C220.513 30.2415 220.193 28.9501 219.545 27.825C218.898 26.692 218.016 25.8126 216.908 25.1867C215.793 24.5608 214.568 24.2439 213.218 24.2439C211.876 24.2439 210.644 24.5608 209.528 25.1867C208.412 25.8126 207.531 26.7 206.891 27.825C206.251 28.9501 205.924 30.2415 205.924 31.6676C205.924 33.0937 206.251 34.3772 206.899 35.5022C207.546 36.6273 208.436 37.5067 209.551 38.1405C210.667 38.7744 211.892 39.0913 213.218 39.0913C214.568 39.0913 215.793 38.7823 216.908 38.1485Z" fill="#0000FF"/>
<path d="M236.654 44.6372C234.805 43.7261 233.362 42.4268 232.301 40.7313C231.248 39.0358 230.717 37.063 230.717 34.8129V18.0244H238.152V34.2504C238.152 35.724 238.558 36.9045 239.377 37.8077C240.196 38.7109 241.351 39.1546 242.841 39.1546C244.308 39.1546 245.447 38.703 246.266 37.7998C247.085 36.8966 247.491 35.7082 247.491 34.2345V18.0244H254.949V34.8129C254.949 36.9521 254.458 38.8773 253.467 40.5728C252.476 42.2762 251.064 43.5993 249.238 44.558C247.405 45.5167 245.275 45.992 242.849 45.992C240.563 46 238.503 45.5484 236.654 44.6372Z" fill="#0000FF"/>
<path d="M271.185 18.0244C273.112 18.0244 274.836 18.4364 276.357 19.2683C277.878 20.1002 279.072 21.2569 279.93 22.7306C280.788 24.2122 281.217 25.8759 281.217 27.722C281.217 29.7185 280.796 31.4774 279.954 32.9907C279.111 34.5118 277.933 35.6844 276.427 36.5163C274.922 37.3482 273.205 37.7602 271.294 37.7602H266.769V45.3344H259.311V18.0244H271.185ZM272.3 30.6217C272.745 30.3286 273.096 29.9245 273.361 29.4175C273.627 28.9104 273.759 28.3479 273.759 27.7299C273.759 27.2624 273.627 26.795 273.361 26.3355C273.096 25.8759 272.745 25.4956 272.292 25.1946C271.848 24.8935 271.372 24.743 270.865 24.743H266.753V31.0654H270.849C271.372 31.0575 271.856 30.9149 272.3 30.6217Z" fill="#0000FF"/>
<path d="M275.99 0H273.611V13.0172H275.99V0Z" fill="#0000FF"/>
<path d="M268.391 5.30081V7.71729L281.209 7.71729V5.30081L268.391 5.30081Z" fill="#0000FF"/>
<path d="M297.001 19.7336L295.318 18.0249L286.255 27.2294L287.937 28.9381L297.001 19.7336Z" fill="#0000FF"/>
<path d="M287.932 18.0223L286.25 19.731L295.313 28.9354L296.996 27.2268L287.932 18.0223Z" fill="#0000FF"/>
<path d="M291.671 9.35706C293.218 9.35706 294.472 8.08362 294.472 6.51276C294.472 4.94189 293.218 3.66846 291.671 3.66846C290.125 3.66846 288.871 4.94189 288.871 6.51276C288.871 8.08362 290.125 9.35706 291.671 9.35706Z" fill="#0000FF"/>
</svg>
